# xmcd
#
# Track frame offsets: 
#        150
#        8855
#        18362
#        39920
#        51955
#        61107
#        73670
#        84430
#        93767
#        102622
#        112170
#        124340
#        134622
#        145202
#        156065
#        168785
#        179600
#        190027
#        199775
#        208277
#        220485
#        231370
#        242577
#        252922
#        261540
#
# Disc length: 3597 seconds
#
# Revision: 3
# Processed by: cddbd v1.5.2PL0 Copyright (c) Steve Scherf et al.
# Submitted via: ExactAudioCopyFreeDBPlugin 1.0
#
DISCID=740e0b19
DTITLE=Fats Domino - Walking to New Orleans:  The Legendary Imperial R
DTITLE=ecordings, 1949-1962 (Crescent City Soul) [Capitol box set]
DYEAR=2002
DGENRE=Rhythm and Blues
TTITLE0=Shu Rah
TTITLE1=My Girl Josephine
TTITLE2=Natural Born Lover
TTITLE3=Ain't That Just Like a Woman
TTITLE4=Rising Sun
TTITLE5=It Keeps Rainin'
TTITLE6=What a Price
TTITLE7=La-La (version #2)
TTITLE8=Fell in Love on Monday
TTITLE9=Hold Hands
TTITLE10=Bad Luck and Trouble
TTITLE11=I've Been Calling
TTITLE12=Won't You Come on Back
TTITLE13=Good Hearted Man
TTITLE14=One Night
TTITLE15=You Win Again
TTITLE16=Let the Four Winds Blow
TTITLE17=Your Cheatin' Heart
TTITLE18=What a Party
TTITLE19=Trouble Blues
TTITLE20=Jambalaya (On the Bayou)
TTITLE21=Goin' Home (version #2)
TTITLE22=My Real Name
TTITLE23=I Want to Go Home
TTITLE24=Dance with Mr. Domino
EXTD=
EXTT0=
EXTT1=
EXTT2=
EXTT3=
EXTT4=
EXTT5=
EXTT6=
EXTT7=
EXTT8=
EXTT9=
EXTT10=
EXTT11=
EXTT12=
EXTT13=
EXTT14=
EXTT15=
EXTT16=
EXTT17=
EXTT18=
EXTT19=
EXTT20=
EXTT21=
EXTT22=
EXTT23=
EXTT24=
PLAYORDER=
